#!OML:ASF F:\VICON\USERDATA\INSTALL\rory3\rory3.ASF
:FULLY-SPECIFIED
:DEGREES
63
root 0.5200950744811194 17.9619552757332 19.730122665277047 -3.0870660429159145 0.6540968625098298 2.1790610384115428
lfemur 2.2122079052397154 -3.0760472641983916 -25.1629505673844
ltibia 17.863577543921327
lfoot -14.55922177517174 0.5130668910378382
ltoes -1.1457707103771413
rfemur -25.57761068030127 1.1083250610353526 20.66197349741885
rtibia 57.64464183038326
rfoot -8.378393939017185 -9.966062371192828
rtoes 2.097738798433249
lowerback 10.546560474943874 0.03775683761460791 -2.6192974574842935
upperback 0.40129402903403216 -0.19049988986503563 0.7507153484642495
thorax -5.499077628006477 -0.0355237938813483 2.026406046682218
lowerneck -16.208855089839687 -2.889231525731985 -2.5652392465219256
upperneck 20.748306951996867 -3.6826331914530894 1.2999091796356417
head 9.335074860865973 -1.7485538202680464 0.27474983152310395
lclavicle -1.9529754880397663e-15 9.07012927558508e-16
lhumerus -28.069714435584892 -0.14196701681106882 82.6997486399059
lradius 27.30335226486845
lwrist 6.385074951235405
lhand -26.99587869513485 23.186316686683003
lfingers 7.12502
lthumb -0.025736919826405025 53.7792273641279
rclavicle -1.952170006310783e-15 9.09421372606052e-16
rhumerus -29.432172449483307 -17.50977511821187 -80.16737770089114
rradius 27.128492223795686
rwrist 4.070844935063305
rhand -16.965932063852044 21.346094940319446
rfingers 7.12502
rthumb 9.397342174978288 -8.11846740046881
64
root 0.479689274331403 17.91635203095789 20.571260072806048 -2.813318149321818 1.2884011919621052 2.3148304736774343
lfemur 4.666585782113769 -2.8983269228017714 -25.35776668656845
ltibia 15.75136213476101
lfoot -15.063412577637635 0.567223525783924
ltoes -0.36275096319838473
rfemur -26.582063382423485 2.640614522311375 19.786214576447943
rtibia 49.39605791447953
rfoot -7.890817820916013 -12.167404823148974
rtoes 1.3980464034680602
lowerback 10.415668984085663 -0.24424501703533663 -2.9867114213486134
upperback 0.48726691819261997 -0.6263853755962043 0.8354508284835728
thorax -5.350673497044087 -0.2559324899208484 2.3117620840337776
lowerneck -16.175282259370572 -2.9045228004252053 -2.7346336823861193
upperneck 20.603346749600085 -3.7038776144637784 1.4350723184111056
head 9.275389798983102 -1.7571772266742136 0.34913969242040044
lclavicle -1.953098573568975e-15 9.068994318469996e-16
lhumerus -27.078198420659 -1.5085695257136973 82.77407510200774
lradius 29.130098747224146
lwrist 6.278907145938792
lhand -26.982683738858917 23.628809573861393
lfingers 7.12502
lthumb -0.14556286327793844 53.89129016417492
rclavicle -1.952661478343131e-15 9.091992588426511e-16
rhumerus -29.860883860753834 -17.57344410164634 -79.91212741091357
rradius 26.757452141303173
rwrist 3.6847333352155314
rhand -16.840339946112845 21.772966851603197
rfingers 7.12502
rthumb 9.54507381662952 -7.789326692673157
65
root 0.4504974833084614 17.888514737034317 21.592645680178617 -2.3398077052263715 1.4475503902042997 2.597758495581083
lfemur 7.278651786863447 -2.646016150693368 -25.758391002419064
ltibia 13.069021624450759
lfoot -14.430206318541416 0.2985447605978562
ltoes -0.7556900312559072
rfemur -25.94641123433435 4.835313274756614 18.21750590452679
rtibia 38.748284597220284
rfoot -6.848300792460086 -14.012850611742016
rtoes -0.1712460306932262
lowerback 10.069259358795495 -0.3535322446260397 -3.303317200897167
upperback 0.40408844750718587 -0.8589041791212271 0.8144944601333185
thorax -5.25368886807615 -0.3642866823613726 2.4948877776785543
lowerneck -16.213255143370485 -2.917209337093017 -2.8948805903510726
upperneck 20.58908228979594 -3.7096905464520327 1.6403157763857328
head 9.274351528206518 -1.7527996716163692 0.45312845453234807
lclavicle -1.952330041787743e-15 9.076076040735675e-16
lhumerus -26.1340972722551 -2.115875058339709 82.6094580192773
lradius 30.797895237093552
lwrist 6.6541543321005445
lhand -27.838890049351427 23.85955607837124
lfingers 7.12502
lthumb -1.0343158048203496 54.06650399669535
rclavicle -1.9568084526929753e-15 9.052972020328354e-16
rhumerus -30.288666817143923 -18.373981981830468 -79.38261081672488
rradius 25.7623636540461
rwrist 4.297163033521464
rhand -16.76323991424625 22.673301468797643
rfingers 7.12502
rthumb 9.591674030379044 -6.921285397256724
66
root 0.4156602466250873 17.88440798744612 22.205186611829163 -1.574578838002007 1.4570015618627474 2.8174147849080717
lfemur 9.621600798688895 -2.2980703058136824 -26.14656439861603
ltibia 10.785627219914574
lfoot -13.50736324256091 -0.15656087269795205
ltoes -1.0369963298766884
rfemur -25.19433209159923 6.577854988427684 16.741302284353523
rtibia 27.32273443895148
rfoot -6.244104293568611 -15.83128757410637
rtoes -0.4361710695429286
lowerback 9.416771016646287 -0.4514612278605844 -3.696128947890248
upperback 0.27200522215702544 -0.9919184040918965 0.8032046120403823
thorax -5.051807732160238 -0.4034866780126396 2.772172266098946
lowerneck -16.518713399484124 -2.9215468782744276 -2.867006008575199
upperneck 20.619476154678846 -3.708228952237893 1.663812842037108
head 9.310482672424428 -1.7505235958535834 0.4683712652890146
lclavicle -1.9528186711112647e-15 9.071573826719589e-16
lhumerus -25.126588464684772 -1.8826419678504827 82.27387236965454
lradius 32.42910709457946
lwrist 7.396924594070002
lhand -28.453832634757205 23.747188660801907
lfingers 7.12502
lthumb -1.322973672457954 53.83589360440536
rclavicle -1.9554566413802666e-15 9.064701303571606e-16
rhumerus -30.84729120806819 -19.393759272590852 -78.81181475032552
rradius 25.184969377510054
rwrist 5.359200986848435
rhand -16.906789601124323 23.36545995044301
rfingers 7.12502
rthumb 9.420026106983283 -5.992023612362121
67
root 0.3561564698328703 17.86783454270497 22.599274333295227 -0.9505977534462586 1.5836051751471238 2.369513642546248
lfemur 11.744614384934014 -2.4992273888830066 -25.520030562835228
ltibia 9.51031101606878
lfoot -12.446786584734735 -1.203986830314715
ltoes -4.016774977633269
rfemur -25.247472857649463 7.139142604520201 16.580792796016475
rtibia 19.146575958514646
rfoot -6.69230681148511 -17.621808018042366
rtoes -2.633222467770803
lowerback 8.986488438988083 -0.6422434423926132 -3.485993657557084
upperback 0.07332391078278888 -1.2309589468582476 1.0553273780108638
thorax -4.976242327421689 -0.5192290407935607 3.0085472178168833
lowerneck -16.63120004251563 -2.8847103059513444 -2.75982453573228
upperneck 20.52723235165597 -3.6615973848697867 1.6107678531931782
head 9.27614723091149 -1.7248645260657491 0.4639085719971928
lclavicle -1.95372120105555e-15 9.063263599169676e-16
lhumerus -24.860308450627446 -1.6920453210867692 82.04511877712231
lradius 33.68934473225113
lwrist 8.411813570390938
lhand -28.791899432038516 22.755937930955838
lfingers 7.12502
lthumb -1.6359363744758197 53.06541451798492
rclavicle -1.955160795852987e-15 9.067847233303785e-16
rhumerus -31.328712360718804 -20.606038858876072 -78.11130091490348
rradius 24.055840655117983
rwrist 6.652335097590477
rhand -16.543733163920965 23.773868705703027
rfingers 7.12502
rthumb 9.673009969648795 -6.013321299240038
68
root 0.3020618474624117 17.816623004559816 23.177241258851247 -0.5978627349934935 2.2483120935607723 3.127026995254418
lfemur 13.473930965763106 -3.136787697234835 -26.127648591949338
ltibia 9.302147098421482
lfoot -11.437442514174116 -2.7919168577976343
ltoes -7.649804646210406
rfemur -26.028080293640492 6.555941549556068 15.58190371594916
rtibia 17.21934837273824
rfoot -7.741772807656353 -16.384572321066013
rtoes -3.4284146704044463
lowerback 8.818142693937656 -0.8442934043385523 -4.266995333390365
upperback 0.025454491785065148 -1.6072912108493456 0.842129669792404
thorax -4.842595438141004 -0.7046325411573406 3.4347304126183174
lowerneck -16.756267854099224 -2.8673339528208848 -2.745202372854786
upperneck 20.435467294931552 -3.626636528061072 1.6595615041027376
head 9.24067334849934 -1.7035678779544614 0.5023501031584948
lclavicle -1.9537950924317367e-15 9.062581140488373e-16
lhumerus -25.08833210230308 -1.6812429665112723 82.10667465728184
lradius 34.5633949479628
lwrist 8.474302060742037
lhand -28.789253150692037 22.89610878851888
lfingers 7.12502
lthumb -1.8822650761156483 53.2132903579234
rclavicle -1.9554454133530926e-15 9.065358918741758e-16
rhumerus -31.63033899605215 -21.646048770754895 -77.29113591229024
rradius 23.099394734491028
rwrist 7.905219872146675
rhand -16.51452306281059 23.763530975239604
rfingers 7.12502
rthumb 9.67749893172321 -6.179343206384896
69
root 0.23037606186594425 17.746286270463415 23.60987990525173 -0.29847759755207237 2.4498172869196524 2.6374765790259533
lfemur 14.262733432674196 -3.4277850518545536 -25.39588125254229
ltibia 11.733948692942892
lfoot -11.42875761410007 -3.527718952706839
ltoes -11.784033137973122
rfemur -26.076704372324087 6.612610962242927 16.00269321633792
rtibia 17.936225670527943
rfoot -9.04713748078174 -13.55846456906697
rtoes -3.2560179737739277
lowerback 8.846126472445846 -0.9028696062977869 -3.9599776891159912
upperback -0.10989639206052632 -1.602567932716858 1.1185053050381395
thorax -4.888975375807498 -0.6972660576922916 3.6078480583282384
lowerneck -16.77003434209677 -2.857434176539563 -2.787202524481706
upperneck 20.46295484129038 -3.5870484492996964 1.5465469467350217
head 9.258752103471018 -1.6947473866337568 0.47772353733539596
lclavicle -1.9542478456213953e-15 9.058404997440739e-16
lhumerus -25.304946343934976 -1.2724302488279118 82.24843474305841
lradius 34.88303751449025
lwrist 8.919976292551812
lhand -29.205867306629376 22.19179030999924
lfingers 7.12502
lthumb -2.2497717318268124 52.4531450482525
rclavicle -1.9556088793066864e-15 9.064249641241279e-16
rhumerus -31.950743013594778 -22.075111859643595 -76.83807908734559
rradius 22.647145164726496
rwrist 8.548857083164638
rhand -17.010303595752884 23.436025132649533
rfingers 7.12502
rthumb 9.335792066219144 -6.22050843806885
